<?xml version="1.0" encoding="UTF-8" standalone="no"?>
<svg
   xmlns:dc="http://purl.org/dc/elements/1.1/"
   xmlns:cc="http://creativecommons.org/ns#"
   xmlns:rdf="http://www.w3.org/1999/02/22-rdf-syntax-ns#"
   xmlns:svg="http://www.w3.org/2000/svg"
   xmlns="http://www.w3.org/2000/svg"
   xmlns:sodipodi="http://sodipodi.sourceforge.net/DTD/sodipodi-0.dtd"
   xmlns:inkscape="http://www.inkscape.org/namespaces/inkscape"
   version="1.1"
   x="0px"
   y="0px"
   viewBox="0 0 442.5 184.667"
   xml:space="preserve"
   id="svg173"
   sodipodi:docname="ruleta.svg"
   inkscape:version="1.0.2 (e86c870879, 2021-01-15)"
   style="enable-background:new 0 0 442.5 184.667;"><metadata
   id="metadata179"><rdf:RDF><cc:Work
       rdf:about=""><dc:format>image/svg+xml</dc:format><dc:type
         rdf:resource="http://purl.org/dc/dcmitype/StillImage" /><dc:title></dc:title></cc:Work></rdf:RDF></metadata><defs
   id="defs177" /><sodipodi:namedview
   pagecolor="#ffffff"
   bordercolor="#666666"
   borderopacity="1"
   objecttolerance="10"
   gridtolerance="10"
   guidetolerance="10"
   inkscape:pageopacity="0"
   inkscape:pageshadow="2"
   inkscape:window-width="1920"
   inkscape:window-height="986"
   id="namedview175"
   showgrid="false"
   inkscape:zoom="2"
   inkscape:cx="276.21774"
   inkscape:cy="83.524145"
   inkscape:window-x="0"
   inkscape:window-y="36"
   inkscape:window-maximized="1"
   inkscape:current-layer="svg173" />
<style
   type="text/css"
   id="style159">
	.st0{fill:#FBB844;}
	.st1{fill:#664F2D;}
	.st2{fill:#96692D;}
  #wheel {
    animation: spin 6s infinite linear reverse;
    transform-origin: center;}
  #ball {
    animation: spin 3s infinite linear;
    transform-origin: center;}
  @keyframes spin {
    from { transform: rotate(0deg); }
    to { transform: rotate(360deg); }
  }
</style>
<g
   id="background"
   style="fill:#333333">
	<circle
   style="fill:#333333;fill-opacity:1;stroke:none;stroke-width:1.15652"
   id="path1004"
   cx="220.46484"
   cy="92.194435"
   r="92.788071" />
	
</g><ellipse
   style="fill:#280b0b;fill-opacity:1;stroke:none;stroke-width:1.20166"
   id="path1021"
   cx="221.46245"
   cy="89.810738"
   rx="49.156162"
   ry="49.327301" />
<g
   id="wheel"
   inkscape:transform-center-x="-204.47856"
   inkscape:transform-center-y="-39.569092">
	
	
	<g
   id="g1057"><g
     id="g1051"><path
       id="red"
       class="st0"
       d="m 203.303,163.936 7.331,-30.378 c -1.669,-0.442 -3.331,-0.978 -4.975,-1.637 -0.576,-0.231 -1.14,-0.479 -1.701,-0.732 l -12.124,28.758 c 3.399,1.477 7.663,3.009 11.469,3.989 z m 22.939,2.105 -2.767,-31.122 c -2.342,0.113 -4.708,0.036 -7.076,-0.249 l -2.13,31.172 c 4.002,0.393 8.005,0.455 11.973,0.199 z M 163.666,45.674 188.267,66.035 c 1.306,-1.638 2.723,-3.165 4.235,-4.573 L 170.328,38.414 c -2.369,2.258 -4.596,4.681 -6.662,7.26 z m 123.091,12.763 c -2.238,-4.346 -4.904,-8.474 -7.974,-12.319 l -24.372,19.64 c 1.791,2.21 3.346,4.588 4.653,7.091 z m 7.099,46.927 c 0.738,-4.102 1.099,-8.213 1.138,-12.297 L 263.9,93.695 c -0.058,2.087 -0.27,4.185 -0.646,6.277 z m 0.286,-24.238 c -0.71,-4.607 -1.855,-9.122 -3.404,-13.491 l -29.127,11.14 c 0.87,2.539 1.501,5.162 1.879,7.837 z M 272.137,38.847 c -3.254,-3.113 -6.811,-5.959 -10.667,-8.473 l -16.451,26.823 c 1.808,1.203 3.499,2.534 5.073,3.972 z m -45.895,127.194 c -3.967,0.257 -7.971,0.194 -11.973,-0.2 l 2.13,-31.172 c -1.925,-0.232 -3.85,-0.604 -5.765,-1.111 l -7.331,30.378 c -3.807,-0.98 -8.07,-2.513 -11.469,-3.989 l 12.124,-28.758 c -2.055,-0.928 -4.005,-1.998 -5.838,-3.2 l -15.641,27.52 c 3.453,2.1 7.113,3.959 10.989,5.512 15.039,6.028 30.882,6.752 45.481,3.089 l -8.112,-30.196 c -2.409,0.548 -4.872,0.885 -7.363,1.005 z m 10.752,-34.031 11.486,29.009 c 4.57,-1.829 8.955,-4.108 13.086,-6.811 l -16.983,-26.103 c -2.396,1.554 -4.939,2.862 -7.589,3.905 z m 20.562,-17.169 27.113,15.223 c 1.902,-3.219 3.771,-7.086 5.205,-10.664 0.125,-0.311 0.167,-0.472 0.535,-1.402 l -28.852,-11.564 c -0.218,0.627 -0.448,1.253 -0.697,1.875 -0.926,2.31 -2.041,4.484 -3.304,6.532 z m 11.857,33.451 c 2.905,-2.509 5.627,-5.255 8.135,-8.228 l -24.207,-19.518 c -1.173,1.335 -2.424,2.584 -3.741,3.749 z M 163.666,45.674 c 2.066,-2.578 4.293,-5.002 6.662,-7.26 l 22.174,23.048 c 1.897,-1.767 3.946,-3.342 6.112,-4.722 L 181.055,30.06 C 171.004,36.495 162.436,45.4 156.36,56.343 l 27.874,15.768 c 1.184,-2.165 2.533,-4.195 4.033,-6.076 z m 47.827,5.582 -8.93,-30.581 c -4.381,1.131 -8.643,2.665 -12.738,4.567 l 14.383,28.491 c 2.347,-1.043 4.785,-1.871 7.285,-2.477 z m -60.874,18.277 c -1.323,4.072 -2.276,8.185 -2.869,12.303 l 31.841,3.627 c 0.362,-2.134 0.889,-4.264 1.594,-6.373 z m 30.701,36.79 -30.016,10.83 c 1.64,4.601 3.726,9.036 6.238,13.233 l 27.239,-16.502 c -1.397,-2.403 -2.556,-4.935 -3.461,-7.561 z m -18.176,32.135 c 2.804,3.524 5.942,6.807 9.395,9.798 l 20.053,-24.607 c -1.555,-1.442 -2.989,-2.991 -4.297,-4.631 z M 146.996,93.752 c 0.091,4.661 0.632,9.273 1.583,13.783 l 31.127,-7.344 c -0.475,-2.568 -0.713,-5.189 -0.704,-7.832 z m 91.818,-39.969 11.79,-29.245 c -0.689,-0.3 -1.371,-0.611 -2.073,-0.892 -2.582,-1.035 -5.19,-1.9 -7.809,-2.628 l -9.467,30.19 c 2.013,0.48 4.015,1.109 5.993,1.902 0.531,0.212 1.049,0.442 1.566,0.673 z"
       style="fill:#fb3b44;fill-opacity:1" /><path
       id="black"
       class="st1"
       d="m 238.814,53.783 11.798,-29.267 c 3.836,1.672 7.462,3.635 10.862,5.85 l -16.456,26.831 c -1.939,-1.291 -4.012,-2.433 -6.204,-3.414 z m -7.559,-2.576 9.471,-30.203 c -0.855,-0.238 -1.712,-0.459 -2.569,-0.665 -3.367,-0.807 -6.751,-1.367 -10.129,-1.691 l -2.829,31.575 c 2.019,0.18 4.042,0.504 6.056,0.984 z m 23.157,14.55 24.388,-19.652 c -2.042,-2.557 -4.261,-4.989 -6.648,-7.272 l -22.06,22.337 c 1.562,1.427 3.003,2.962 4.32,4.587 z m 9.488,27.938 31.116,-0.628 c 0.039,-4.021 -0.253,-8.015 -0.859,-11.944 l -30.668,5.489 c 0.33,2.332 0.477,4.699 0.411,7.083 z m -2.343,12.739 28.875,11.573 c 1.488,-3.713 2.831,-8.381 3.71,-13.09 l -30.777,-5.661 c -0.389,2.406 -0.983,4.806 -1.808,7.178 z m 0.053,-27.659 29.145,-11.147 c -1.118,-3.153 -2.447,-6.227 -3.979,-9.201 l -27.711,14.422 c 0.997,1.908 1.847,3.889 2.545,5.926 z m -81.904,21.416 -31.355,7.398 c 0.688,3.273 1.596,6.498 2.718,9.649 l 30.252,-10.915 c -0.689,-1.997 -1.229,-4.046 -1.615,-6.132 z M 179.59,85.463 147.516,81.81 c -0.574,3.98 -0.817,7.977 -0.74,11.952 l 32.226,-1.403 c 0.007,-2.29 0.198,-4.595 0.588,-6.896 z m 2.458,-8.742 c 0.642,-1.601 1.38,-3.134 2.187,-4.611 L 156.202,56.252 c -1.969,3.482 -4.332,8.654 -5.831,13.204 l 30.814,9.635 c 0.265,-0.794 0.547,-1.584 0.863,-2.37 z m 2.733,37.163 -27.449,16.629 c 1.683,2.807 3.558,5.512 5.62,8.093 l 25.342,-19.588 c -1.299,-1.628 -2.471,-3.344 -3.513,-5.134 z m 7.81,9.765 -20.185,24.77 c 3.075,2.649 6.407,5.077 9.986,7.245 l 15.729,-27.675 c -1.983,-1.301 -3.825,-2.759 -5.53,-4.34 z m 25.754,-73.477 -4.081,-31.914 c -4.002,0.391 -7.942,1.107 -11.784,2.129 l 9.013,30.869 c 2.242,-0.544 4.532,-0.912 6.852,-1.084 z m -14.136,3.561 -14.477,-28.677 c -3.022,1.434 -5.945,3.07 -8.747,4.897 l 17.629,26.787 c 1.791,-1.142 3.66,-2.147 5.595,-3.007 z M 170.328,38.414 c -2.369,2.258 -4.596,4.682 -6.662,7.26 l 24.601,20.361 c 1.306,-1.638 2.723,-3.165 4.235,-4.573 z m 32.975,125.522 7.331,-30.378 c -1.669,-0.442 -3.331,-0.978 -4.975,-1.637 -0.576,-0.231 -1.14,-0.479 -1.701,-0.732 l -12.124,28.758 c 3.399,1.477 7.663,3.009 11.469,3.989 z m 13.096,-29.267 -2.13,31.172 c 4.002,0.394 8.006,0.456 11.973,0.2 l -2.767,-31.122 c -2.343,0.113 -4.708,0.036 -7.076,-0.25 z m 61.415,5.609 c 2.633,-3.089 5.043,-6.433 7.193,-10.023 l -27.452,-15.414 c -1.257,2.039 -2.667,3.944 -4.214,5.704 z m -33.231,-12.173 17.09,26.267 c 2.751,-1.772 5.395,-3.733 7.909,-5.877 l -19.98,-24.201 c -1.583,1.399 -3.261,2.671 -5.019,3.811 z m -13.745,5.809 8.112,30.196 c 3.251,-0.788 6.446,-1.795 9.561,-3.013 L 236.994,132.01 c -1.999,0.787 -4.055,1.426 -6.156,1.904 z"
       style="fill:#4d4d4d" /></g><path
     id="green"
     class="st2"
     d="m 218.422,50.778 -4.109,-32.136 c 4.525,-0.414 9.112,-0.415 13.712,0.026 l -2.907,32.449 c -2.219,-0.223 -4.434,-0.263 -6.625,-0.129 z"
     style="fill:#00806d;fill-opacity:1" /></g>
	<path
   id="strips"
   d="m 287.074,118.994 c 14.617,-36.467 -3.16,-78.027 -39.628,-92.643 -36.468,-14.616 -78.027,3.16 -92.643,39.628 -4.77609,11.916369 -6.09338,24.376566 -4.42989,36.26274 3.42719,24.48842 19.50659,46.54035 44.05789,56.38026 36.467,14.617 78.027,-3.161 92.643,-39.628 z M 155.731,66.351 c 14.411,-35.955 55.388,-53.483 91.343,-39.072 35.955,14.411 53.483,55.388 39.072,91.343 -4.83622,12.06656 -12.66437,22.05761 -22.29056,29.46256 -19.05799,14.66037 -45.16367,19.18422 -69.05244,9.60944 -35.955,-14.411 -53.483,-55.387 -39.072,-91.343 z m 118.641,47.375 c 11.796,-29.43 -2.551,-62.969 -31.98,-74.765 -29.429,-11.796 -62.969,2.551 -74.765,31.98 -11.796,29.43 2.551,62.969 31.98,74.765 29.43,11.796 62.97,-2.55 74.765,-31.98 z M 168.556,71.313 c 11.591,-28.918 44.546,-43.015 73.464,-31.424 28.918,11.591 43.015,44.546 31.424,73.464 -11.591,28.918 -44.546,43.015 -73.464,31.424 -28.918,-11.59 -43.015,-44.546 -31.424,-73.464 z"
   sodipodi:nodetypes="cscscccscssccscccssscs" />
	<path
   id="spinner"
   class="st0"
   d="m 222.413,130.472 c 7.178,-0.266 1.206,-5.557 0.683,-8.179 -0.681,-3.416 1.095,-11.323 1.87,-14.88 2.435,-11.171 10.623,-11.666 21.182,-12.385 1.927,-0.131 5.053,-1.389 6.734,-1.177 2.79,0.351 3.918,6.201 6.349,0.155 0.569,-1.415 0.252,-4.954 -1.241,-5.808 -3.56,-2.039 -3.062,2.486 -5.83,2.91 -2.924,0.448 -9.99,-0.763 -13.077,-1.222 -4.734,-0.704 -9.879,-2.449 -12.394,-6.554 -2.017,-3.293 -2.768,-8.722 -2.871,-13.149 -0.043,-1.861 -0.41,-4.678 -0.176,-6.423 0.125,-0.93 -0.391,-2.505 -0.38,-3.328 0.023,-1.649 3.066,-1.581 2.126,-3.91 -0.867,-2.147 -5.244,-2.573 -6.993,-1.389 -4.191,2.837 0.184,2.405 0.508,5.046 0.405,3.302 0.555,9.689 -0.094,13.973 -1.532,10.117 -6.721,14.987 -17.191,16.125 -2.383,0.259 -5.647,-0.08 -8.095,-0.209 -0.828,-0.044 -1.723,0.919 -2.558,0.835 -0.813,-0.082 -2.658,-1.527 -2.939,-1.511 -2.228,0.124 -4.978,-0.436 -4.514,4.077 0.402,3.91 1.964,3.285 4.456,3.159 1.192,-0.06 0.924,-2.209 2.169,-2.523 1.628,-0.411 2.692,0.932 4.12,0.888 2.579,-0.079 6.298,-0.202 8.837,0.182 5.147,0.779 8.956,1.556 11.894,5.825 2.307,3.352 1.877,2.374 3.036,6.62 0.949,3.476 0.685,6.008 0.931,9.585 0.136,1.978 1.395,5.022 1.177,6.734 -0.331,2.607 -6.782,6.868 2.281,6.533 z"
   style="fill:#b3b3b3" />
</g>
<g
   id="ball"
   transform="rotate(15,226.93774,7.8656322)"
   inkscape:transform-center-x="-37.682831"
   inkscape:transform-center-y="-17.81871">
	<circle
   id="visible-ball"
   class="st0"
   cx="221.23801"
   cy="12.027"
   style="fill:#ffffff"
   r="4.75" />
	
</g>
</svg>
