<?xml version="1.0" encoding="utf-8"?>
<!-- Generator: Adobe Illustrator 24.0.1, SVG Export Plug-In . SVG Version: 6.00 Build 0)  -->
<svg version="1.1" id="Capa_1" xmlns="http://www.w3.org/2000/svg" xmlns:xlink="http://www.w3.org/1999/xlink" x="0px" y="0px"
	 viewBox="0 0 1500 1500" style="enable-background:new 0 0 1500 1500;" xml:space="preserve">
<style type="text/css">
	.st0{fill:#1E1E1E;}
	.st1{fill:url(#SVGID_1_);}
</style>
<g>
	<g>
		<g>
			<path class="st0" d="M680.84,599.42l23.5-40.81c0.33-0.41,0.88-1.07,1.67-1.98c0.78-0.91,2-1.36,3.65-1.36h8.41
				c0.91,0,1.69,0.33,2.35,0.99c0.66,0.66,0.99,1.44,0.99,2.35v79.89c0,0.91-0.33,1.69-0.99,2.35c-0.66,0.66-1.44,0.99-2.35,0.99
				h-10.02c-0.91,0-1.69-0.33-2.35-0.99c-0.66-0.66-0.99-1.44-0.99-2.35v-48.36l-16.08,27.83c-0.41,0.66-0.99,1.34-1.73,2.04
				c-0.74,0.7-1.69,1.05-2.84,1.05h-6.43c-1.16,0-2.1-0.35-2.84-1.05c-0.74-0.7-1.32-1.38-1.73-2.04l-16.08-27.83v48.36
				c0,0.91-0.33,1.69-0.99,2.35c-0.66,0.66-1.44,0.99-2.35,0.99h-10.02c-0.91,0-1.69-0.33-2.35-0.99c-0.66-0.66-0.99-1.44-0.99-2.35
				v-79.89c0-0.91,0.33-1.69,0.99-2.35c0.66-0.66,1.44-0.99,2.35-0.99h8.41c1.65,0,2.86,0.45,3.65,1.36
				c0.78,0.91,1.34,1.57,1.67,1.98L680.84,599.42z"/>
			<path class="st0" d="M744.03,641.84c-0.91,0-1.69-0.33-2.35-0.99c-0.66-0.66-0.99-1.44-0.99-2.35v-79.89
				c0-0.91,0.33-1.69,0.99-2.35c0.66-0.66,1.44-0.99,2.35-0.99h10.02c0.91,0,1.69,0.33,2.35,0.99c0.66,0.66,0.99,1.44,0.99,2.35
				v79.89c0,0.91-0.33,1.69-0.99,2.35c-0.66,0.66-1.44,0.99-2.35,0.99H744.03z"/>
		</g>
		<g>
			<path class="st0" d="M693.75,733.89l31.32-54.4c0.44-0.55,1.18-1.43,2.23-2.64c1.04-1.21,2.66-1.81,4.86-1.81h11.21
				c1.21,0,2.25,0.44,3.13,1.32c0.88,0.88,1.32,1.92,1.32,3.13v106.49c0,1.21-0.44,2.25-1.32,3.13c-0.88,0.88-1.92,1.32-3.13,1.32
				h-13.35c-1.21,0-2.25-0.44-3.13-1.32c-0.88-0.88-1.32-1.92-1.32-3.13v-64.45l-21.43,37.09c-0.55,0.88-1.32,1.79-2.31,2.72
				c-0.99,0.93-2.25,1.4-3.79,1.4h-8.57c-1.54,0-2.8-0.47-3.79-1.4c-0.99-0.93-1.76-1.84-2.31-2.72l-21.43-37.09v64.45
				c0,1.21-0.44,2.25-1.32,3.13c-0.88,0.88-1.92,1.32-3.13,1.32h-13.35c-1.21,0-2.25-0.44-3.13-1.32c-0.88-0.88-1.32-1.92-1.32-3.13
				V679.49c0-1.21,0.44-2.25,1.32-3.13c0.88-0.88,1.92-1.32,3.13-1.32h11.21c2.2,0,3.82,0.61,4.86,1.81
				c1.04,1.21,1.79,2.09,2.23,2.64L693.75,733.89z"/>
			<path class="st0" d="M850.35,769.83c1.21,0,2.25,0.44,3.13,1.32c0.88,0.88,1.32,1.92,1.32,3.13v11.7c0,1.21-0.44,2.25-1.32,3.13
				c-0.88,0.88-1.92,1.32-3.13,1.32h-72.37c-1.21,0-2.25-0.44-3.13-1.32c-0.88-0.88-1.32-1.92-1.32-3.13V679.49
				c0-1.21,0.44-2.25,1.32-3.13c0.88-0.88,1.92-1.32,3.13-1.32h71.05c1.21,0,2.25,0.44,3.13,1.32c0.88,0.88,1.32,1.92,1.32,3.13
				v11.7c0,1.21-0.44,2.25-1.32,3.13c-0.88,0.88-1.92,1.32-3.13,1.32h-53.24v26.21h49.62c1.21,0,2.25,0.44,3.13,1.32
				c0.88,0.88,1.32,1.92,1.32,3.13v11.7c0,1.21-0.44,2.25-1.32,3.13c-0.88,0.88-1.92,1.32-3.13,1.32h-49.62v27.36H850.35z"/>
			<path class="st0" d="M936.07,695.65H882c-1.21,0-2.25-0.44-3.13-1.32c-0.88-0.88-1.32-1.92-1.32-3.13v-11.7
				c0-1.21,0.44-2.25,1.32-3.13c0.88-0.88,1.92-1.32,3.13-1.32h71.87c1.21,0,2.25,0.44,3.13,1.32c0.88,0.88,1.32,1.92,1.32,3.13
				v69.73c0,14.18-3.96,24.87-11.87,32.06c-7.91,7.2-19.23,10.8-33.96,10.8c-7.8,0-14.53-0.96-20.19-2.89
				c-5.66-1.92-10.33-4.53-14.01-7.83c-3.68-3.3-6.46-7.14-8.32-11.54c-1.87-4.39-2.97-9.12-3.3-14.18
				c-0.11-1.32,0.3-2.39,1.24-3.22c0.93-0.82,2-1.24,3.21-1.24h13.35c0.88,0,1.79,0.28,2.72,0.82c0.93,0.55,1.51,1.32,1.73,2.31
				c0.44,2.2,1.21,4.34,2.31,6.43c1.1,2.09,2.58,3.93,4.45,5.52c1.87,1.59,4.17,2.86,6.92,3.79c2.75,0.93,6.04,1.4,9.89,1.4
				c7.58,0,13.41-1.98,17.47-5.93c4.06-3.96,6.1-9.73,6.1-17.31V695.65z"/>
			<path class="st0" d="M979.26,718.07c0.33-6.15,1.51-11.95,3.54-17.39c2.03-5.44,5.03-10.16,8.98-14.18
				c3.96-4.01,8.9-7.2,14.84-9.56c5.93-2.36,12.97-3.54,21.1-3.54c8.02,0,15,1.15,20.94,3.46c5.93,2.31,10.88,5.5,14.84,9.56
				c3.96,4.07,6.98,8.79,9.07,14.18c2.09,5.39,3.3,11.21,3.63,17.47c0.11,2.09,0.19,4.4,0.25,6.92c0.05,2.53,0.08,5.14,0.08,7.83
				c0,2.69-0.03,5.3-0.08,7.83c-0.06,2.53-0.14,4.84-0.25,6.92c-0.33,6.16-1.51,11.95-3.54,17.39c-2.03,5.44-5.03,10.17-8.98,14.18
				c-3.96,4.01-8.93,7.17-14.92,9.48c-5.99,2.31-13,3.46-21.02,3.46c-8.13,0-15.17-1.15-21.1-3.46c-5.93-2.31-10.88-5.47-14.84-9.48
				c-3.96-4.01-6.95-8.74-8.98-14.18c-2.03-5.44-3.21-11.23-3.54-17.39c-0.11-2.09-0.19-4.39-0.25-6.92
				c-0.06-2.53-0.08-5.14-0.08-7.83c0-2.69,0.03-5.3,0.08-7.83C979.06,722.46,979.15,720.15,979.26,718.07z M1053.93,718.89
				c-0.44-7.91-3-14.04-7.67-18.38c-4.67-4.34-10.85-6.51-18.54-6.51c-7.69,0-13.88,2.17-18.54,6.51
				c-4.67,4.34-7.23,10.47-7.67,18.38c-0.22,4.18-0.33,8.82-0.33,13.93c0,5.11,0.11,9.75,0.33,13.93c0.44,7.91,2.99,14.01,7.67,18.3
				c4.67,4.29,10.85,6.43,18.54,6.43c7.69,0,13.87-2.14,18.54-6.43c4.67-4.29,7.23-10.39,7.67-18.3c0.22-4.17,0.33-8.82,0.33-13.93
				C1054.26,727.71,1054.15,723.07,1053.93,718.89z"/>
			<path class="st0" d="M1144.92,675.04c13.74,0,24.17,3.19,31.32,9.56c7.14,6.37,10.72,15.22,10.72,26.54
				c0,8.02-1.84,14.86-5.52,20.52c-3.68,5.66-9.09,9.86-16.24,12.61l22.75,40.72c0.33,0.66,0.49,1.26,0.49,1.81
				c0,0.99-0.36,1.84-1.07,2.56c-0.72,0.72-1.57,1.07-2.56,1.07h-14.01c-2.2,0-3.82-0.52-4.86-1.57c-1.05-1.04-1.79-2-2.23-2.88
				l-21.59-38.41h-21.92v38.41c0,1.21-0.44,2.25-1.32,3.13c-0.88,0.88-1.92,1.32-3.13,1.32h-13.35c-1.21,0-2.25-0.44-3.13-1.32
				c-0.88-0.88-1.32-1.92-1.32-3.13V679.49c0-1.21,0.44-2.25,1.32-3.13c0.88-0.88,1.92-1.32,3.13-1.32H1144.92z M1120.2,726.97h23.9
				c6.26,0,11.26-1.1,15-3.3c3.73-2.2,5.6-6.37,5.6-12.53c0-6.15-1.87-10.27-5.6-12.36c-3.74-2.09-8.74-3.13-15-3.13h-23.9V726.97z"
				/>
		</g>
		<g>
			<path class="st0" d="M712.26,903.64c0.22-1.43,0.8-2.5,1.73-3.21c0.93-0.71,1.95-1.07,3.05-1.07h13.35
				c1.21,0,2.28,0.41,3.21,1.24c0.93,0.82,1.34,1.9,1.24,3.22c-0.33,4.51-1.46,9.01-3.38,13.52c-1.92,4.51-4.86,8.57-8.82,12.2
				c-3.96,3.63-8.96,6.59-15,8.9c-6.05,2.31-13.35,3.46-21.92,3.46c-7.58,0-14.29-1.13-20.11-3.38c-5.83-2.25-10.77-5.38-14.84-9.4
				c-4.07-4.01-7.23-8.82-9.48-14.42c-2.25-5.6-3.6-11.7-4.04-18.3c-0.22-4.17-0.33-8.79-0.33-13.85c0-5.05,0.11-9.67,0.33-13.85
				c0.44-6.59,1.79-12.69,4.04-18.3c2.25-5.6,5.41-10.41,9.48-14.42c4.06-4.01,9.01-7.14,14.84-9.4c5.82-2.25,12.53-3.38,20.11-3.38
				c8.57,0,15.88,1.15,21.92,3.46c6.04,2.31,11.04,5.27,15,8.9s6.9,7.72,8.82,12.28c1.92,4.56,3.05,9.04,3.38,13.43
				c0.11,1.32-0.3,2.39-1.24,3.21c-0.93,0.82-2.01,1.24-3.21,1.24h-13.35c-1.1,0-2.14-0.36-3.13-1.07
				c-0.99-0.71-1.59-1.78-1.81-3.21c-0.33-2.2-1.1-4.34-2.31-6.43c-1.21-2.09-2.86-3.96-4.95-5.6c-2.09-1.65-4.73-2.99-7.91-4.04
				c-3.19-1.04-6.92-1.57-11.21-1.57c-4.29,0-8.02,0.66-11.21,1.98c-3.19,1.32-5.85,3.08-7.99,5.27c-2.14,2.2-3.79,4.84-4.95,7.91
				c-1.15,3.08-1.84,6.32-2.06,9.73c-0.22,4.18-0.33,8.79-0.33,13.85c0,5.06,0.11,9.67,0.33,13.85c0.22,3.52,0.91,6.79,2.06,9.81
				c1.15,3.02,2.8,5.63,4.95,7.83c2.14,2.2,4.81,3.96,7.99,5.27c3.19,1.32,6.92,1.98,11.21,1.98c4.29,0,8.02-0.52,11.21-1.57
				c3.19-1.04,5.85-2.39,8-4.04c2.14-1.65,3.82-3.52,5.03-5.6C711.16,907.99,711.93,905.84,712.26,903.64z"/>
			<path class="st0" d="M830.78,919.63c1.21,0,2.25,0.44,3.13,1.32c0.88,0.88,1.32,1.92,1.32,3.13v11.7c0,1.21-0.44,2.25-1.32,3.13
				c-0.88,0.88-1.92,1.32-3.13,1.32h-72.2c-1.21,0-2.25-0.44-3.13-1.32c-0.88-0.88-1.32-1.92-1.32-3.13V829.3
				c0-1.21,0.44-2.25,1.32-3.13c0.88-0.88,1.92-1.32,3.13-1.32h13.35c1.21,0,2.25,0.44,3.13,1.32c0.88,0.88,1.32,1.92,1.32,3.13
				v90.33H830.78z"/>
			<path class="st0" d="M937.93,824.85c1.21,0,2.25,0.44,3.13,1.32c0.88,0.88,1.32,1.92,1.32,3.13v67.59
				c0,6.82-0.99,12.97-2.97,18.46c-1.98,5.5-4.95,10.22-8.9,14.18c-3.96,3.96-8.9,7.01-14.84,9.15c-5.93,2.14-12.8,3.22-20.61,3.22
				c-7.91,0-14.81-1.07-20.69-3.22c-5.88-2.14-10.8-5.19-14.75-9.15c-3.96-3.96-6.9-8.68-8.82-14.18
				c-1.92-5.49-2.89-11.65-2.89-18.46V829.3c0-1.21,0.44-2.25,1.32-3.13c0.88-0.88,1.92-1.32,3.13-1.32h13.35
				c1.21,0,2.25,0.44,3.13,1.32c0.88,0.88,1.32,1.92,1.32,3.13v66.76c0,4.51,0.6,8.35,1.81,11.54c1.21,3.19,2.91,5.8,5.11,7.83
				c2.2,2.03,4.83,3.52,7.91,4.45c3.08,0.93,6.43,1.4,10.06,1.4c3.63,0,7.01-0.47,10.14-1.4c3.13-0.93,5.8-2.42,8-4.45
				c2.2-2.03,3.93-4.64,5.19-7.83c1.26-3.19,1.9-7.03,1.9-11.54V829.3c0-1.21,0.44-2.25,1.32-3.13c0.88-0.88,1.92-1.32,3.13-1.32
				H937.93z"/>
			<path class="st0" d="M971.73,940.24c-1.21,0-2.25-0.44-3.13-1.32c-0.88-0.88-1.32-1.92-1.32-3.13V829.3
				c0-1.21,0.44-2.25,1.32-3.13c0.88-0.88,1.92-1.32,3.13-1.32h48.63c7.03,0,12.91,1.07,17.64,3.22c4.72,2.14,8.52,4.84,11.37,8.08
				c2.86,3.24,4.92,6.76,6.18,10.55c1.26,3.79,1.9,7.34,1.9,10.63c0,3.3-0.44,6.24-1.32,8.82c-0.88,2.58-1.95,4.78-3.21,6.59
				c-1.26,1.81-2.53,3.33-3.79,4.53c-1.26,1.21-2.28,2.03-3.05,2.47c3.41,2.31,6.54,5.58,9.4,9.81c2.86,4.23,4.29,9.59,4.29,16.07
				c0,4.18-0.77,8.32-2.31,12.45c-1.54,4.12-3.79,7.83-6.76,11.13c-2.97,3.3-6.68,5.96-11.13,7.99c-4.45,2.03-9.59,3.05-15.41,3.05
				H971.73z M1035.19,858.15c0-4.18-1.32-7.34-3.96-9.48s-6.82-3.21-12.53-3.21h-29.18v25.38h29.18c5.71,0,9.89-1.07,12.53-3.21
				S1035.19,862.32,1035.19,858.15z M989.53,919.63h30.5c6.04,0,10.47-1.29,13.27-3.87c2.8-2.58,4.2-5.96,4.2-10.14
				c0-4.17-1.46-7.58-4.37-10.22c-2.91-2.64-7.28-3.96-13.11-3.96h-30.5V919.63z"/>
		</g>
		<g>
			<path class="st0" d="M787.98,640.87h-10.79c-1.7,0-3.08-1.39-3.08-3.08V627c0-1.7,1.39-3.08,3.08-3.08h10.79
				c1.7,0,3.08,1.39,3.08,3.08v10.79C791.06,639.48,789.67,640.87,787.98,640.87z"/>
		</g>
		<g>
			<path class="st0" d="M1215.4,790.11h-9.1c-1.43,0-2.6-1.17-2.6-2.6v-9.1c0-1.43,1.17-2.6,2.6-2.6h9.1c1.43,0,2.6,1.17,2.6,2.6
				v9.1C1218,788.94,1216.83,790.11,1215.4,790.11z"/>
		</g>
	</g>
	<linearGradient id="SVGID_1_" gradientUnits="userSpaceOnUse" x1="426.9372" y1="493.8886" x2="426.9372" y2="1006.1114">
		<stop  offset="0" style="stop-color:#B13CFF"/>
		<stop  offset="0.8518" style="stop-color:#F34856"/>
		<stop  offset="1" style="stop-color:#FF4A39"/>
	</linearGradient>
	<path class="st1" d="M521.67,493.89H332.2c-27.72,0-50.2,22.48-50.2,50.2v149.86c0,27.72,22.48,50.2,50.2,50.2l26.09,0h19.38
		v213.97c0,26.51,21.49,48,48,48c27.9,0,50.52-22.62,50.52-50.52V744.15h19.38l26.09,0c27.72,0,50.2-22.48,50.2-50.2V544.09
		C571.87,516.36,549.4,493.89,521.67,493.89z M352.95,577.46c0-10.73,5.16-19.43,11.52-19.43c6.37,0,11.53,8.7,11.53,19.43
		c0,10.73-5.16,19.43-11.52,19.43C358.11,596.88,352.95,588.19,352.95,577.46z M480.14,649.79c-3.4,6.49-8.26,12.49-14.08,17.43
		c-11.54,9.65-26.87,15.21-42.1,15.27c-15.48,0.3-30.96-5.28-42.39-15.17c-11.87-10.15-19.1-24.57-19.33-38.57
		c-0.03-1.6,1.05-3.66,2.83-3.34c1.47,0.26,2.67,2.26,3.75,3.16c1.67,1.39,3.4,2.7,5.17,3.95c3.54,2.5,7.26,4.73,11.08,6.77
		c14.09,7.51,30.07,11.57,46.07,10.17c10.19-0.89,20.08-3.95,29.17-8.6c5.45-2.79,10.62-6.14,15.48-9.86
		c1.84-1.41,4.88-5.2,7.15-5.63c0.05-0.01,0.1-0.02,0.14-0.02c1.64-0.19,2.57,1.83,2.56,3.35
		C485.57,635.64,483.72,642.74,480.14,649.79z M502.74,589.5c-0.8,0.54-1.7,0.8-2.6,0.8c-1.18,0-2.34-0.45-3.25-1.33
		c-16.09-15.62-29.81-8.87-38.48-0.45c-1.61,1.56-4.02,1.76-5.87,0.49c-1.85-1.27-2.53-3.59-1.66-5.64
		c4.55-10.74,15.02-17.68,26.68-17.68c11.92,0,22.48,7.15,26.91,18.21C505.29,585.95,504.59,588.26,502.74,589.5z"/>
</g>
</svg>
